<?xml version="1.0" standalone="no"?>
<!DOCTYPE svg PUBLIC "-//W3C//DTD SVG 20010904//EN"
 "http://www.w3.org/TR/2001/REC-SVG-20010904/DTD/svg10.dtd">
<svg version="1.0" xmlns="http://www.w3.org/2000/svg"
 width="450.000000pt" height="470.000000pt" viewBox="0 0 450.000000 470.000000"
 preserveAspectRatio="xMidYMid meet">
<metadata>
Created by potrace 1.15, written by Peter Selinger 2001-2017
</metadata>
<g transform="translate(0.000000,470.000000) scale(0.100000,-0.100000)"
fill="#000000" stroke="none">
<path d="M1745 3039 c-11 -11 -31 -50 -45 -87 l-25 -67 -190 -5 c-212 -6 -238
-13 -282 -80 -27 -38 -26 -31 -24 -557 1 -247 5 -350 14 -370 10 -23 13 50 17
402 3 301 9 436 17 450 21 37 68 73 108 84 22 6 115 11 206 11 l166 0 30 77
c20 55 36 81 53 90 19 10 93 13 303 11 152 -2 277 1 277 5 0 4 -11 19 -25 32
l-24 25 -279 0 c-268 0 -280 -1 -297 -21z"/>
<path d="M1387 2983 c-15 -14 -7 -63 12 -73 11 -5 62 -10 114 -10 78 0 99 3
118 19 21 16 22 22 11 45 -12 26 -12 26 -130 26 -65 0 -122 -3 -125 -7z"/>
<path d="M2431 2850 c6 -17 18 -30 27 -30 10 -1 80 -1 158 0 156 1 228 -11
261 -42 28 -26 29 -14 4 28 -11 17 -39 41 -63 53 -40 19 -61 21 -221 21 l-176
0 10 -30z"/>
<path d="M1945 2830 c-193 -39 -349 -189 -400 -387 -26 -99 -11 -249 31 -321
8 -15 13 -19 10 -9 -19 60 -25 151 -16 216 22 154 95 273 219 355 96 64 169
86 288 86 154 -1 263 -47 373 -159 46 -48 51 -51 35 -22 -33 58 -136 155 -201
189 -104 54 -230 74 -339 52z"/>
<path d="M2030 2341 l0 -131 24 0 c18 0 25 7 30 31 3 17 3 35 0 40 -3 5 16 9
41 9 89 0 135 84 81 147 -21 25 -31 28 -100 31 l-76 4 0 -131z"/>
<path d="M2270 2339 l0 -130 28 3 c24 3 27 7 30 48 4 51 13 60 65 60 l37 0 0
-56 c0 -54 0 -55 28 -52 l27 3 1 128 1 127 -28 0 c-28 0 -29 -2 -29 -50 l0
-50 -50 0 -50 0 0 50 c0 49 -1 50 -30 50 l-30 0 0 -131z"/>
<path d="M2615 2460 c-32 -13 -73 -63 -75 -90 -5 -60 1 -82 34 -118 33 -35 38
-37 96 -37 58 0 63 2 96 37 28 32 34 45 34 84 0 53 -21 94 -60 118 -30 17 -92
20 -125 6z m109 -71 c30 -35 30 -35 15 -77 -23 -66 -117 -64 -139 3 -9 27 -8
40 4 63 27 53 81 57 120 11z"/>
<path d="M2830 2446 c0 -26 25 -41 53 -30 14 5 17 -7 19 -98 3 -102 3 -103 28
-103 25 0 25 1 28 102 l3 102 37 3 c29 2 37 7 37 23 0 19 -8 20 -102 23 l-103
3 0 -25z"/>
<path d="M3123 2455 c-40 -17 -63 -61 -63 -118 0 -124 160 -172 238 -72 33 41
36 79 13 128 -34 71 -110 96 -188 62z m102 -41 c45 -18 53 -110 11 -139 -53
-38 -116 -1 -116 67 0 61 48 94 105 72z"/>
<path d="M1811 2092 c-80 -43 -93 -149 -27 -209 31 -28 43 -33 86 -33 28 0 64
7 80 15 28 15 30 19 30 75 l0 60 -55 0 c-52 0 -55 -1 -55 -25 0 -21 5 -25 31
-25 26 0 30 -3 27 -22 -2 -19 -10 -24 -45 -26 -32 -2 -46 2 -62 19 -29 32 -28
83 4 114 27 28 48 31 87 11 24 -13 28 -12 42 3 23 25 20 30 -19 47 -46 19 -83
18 -124 -4z"/>
<path d="M2377 2083 c-19 -36 -97 -220 -97 -227 0 -4 13 -6 28 -6 22 0 30 7
39 30 11 28 15 30 63 30 48 0 52 -2 63 -30 9 -23 17 -30 39 -30 15 0 28 3 28
8 0 4 -24 61 -53 127 -42 96 -57 121 -74 123 -16 2 -26 -5 -36 -25z"/>
<path d="M2040 1975 l0 -125 25 0 c23 0 25 4 25 40 0 35 3 40 24 40 16 0 31
-12 50 -40 21 -32 32 -40 57 -40 30 0 31 1 17 23 -44 67 -44 64 -18 85 19 15
25 29 25 62 0 63 -26 80 -126 80 l-79 0 0 -125z"/>
<path d="M2580 1975 l0 -125 30 0 c28 0 30 2 30 40 l0 40 44 0 c64 0 96 29 96
85 0 65 -30 85 -126 85 l-74 0 0 -125z"/>
<path d="M2830 1975 l0 -125 25 0 c23 0 25 3 25 50 l0 50 50 0 50 0 0 -50 c0
-49 1 -50 30 -50 l30 0 0 125 0 125 -30 0 c-29 0 -30 -1 -30 -50 l0 -50 -50 0
-50 0 0 50 c0 47 -2 50 -25 50 l-25 0 0 -125z"/>
<path d="M3094 2073 c8 -16 29 -48 45 -73 25 -36 31 -56 31 -97 0 -52 0 -53
30 -53 30 0 30 1 30 53 0 38 6 62 23 87 13 19 33 52 46 73 l23 37 -31 0 c-27
0 -36 -7 -59 -45 -15 -25 -29 -45 -32 -45 -3 0 -16 20 -30 45 -21 39 -29 45
-58 45 -32 0 -32 0 -18 -27z"/>
</g>
</svg>
